<?xml version="1.0" standalone="no"?>
<!DOCTYPE svg PUBLIC "-//W3C//DTD SVG 20010904//EN"
 "http://www.w3.org/TR/2001/REC-SVG-20010904/DTD/svg10.dtd">
<svg version="1.0" xmlns="http://www.w3.org/2000/svg"
 width="64.000000pt" height="64.000000pt" viewBox="0 0 64.000000 64.000000"
 preserveAspectRatio="xMidYMid meet">
<metadata>
Created by potrace 1.14, written by Peter Selinger 2001-2017
</metadata>
<g transform="translate(0.000000,64.000000) scale(0.100000,-0.100000)"
fill="#000000" stroke="none">
<path d="M317 602 c-33 -3 -42 -10 -75 -60 -20 -31 -42 -60 -49 -65 -18 -11
-27 -66 -13 -82 10 -12 9 -16 -3 -21 -9 -3 -13 -12 -10 -20 3 -8 -3 -24 -13
-35 -19 -21 -19 -21 1 -19 32 4 33 2 25 -36 -8 -34 -8 -35 11 -18 18 16 25 11
20 -18 0 -5 6 -8 14 -8 7 0 19 -8 24 -17 8 -13 10 -14 11 -4 0 18 13 6 16 -14
1 -8 -2 -15 -7 -15 -5 0 -15 -15 -23 -33 -7 -17 -28 -45 -45 -61 -17 -17 -31
-32 -31 -35 0 -5 254 -7 284 -2 6 0 -5 17 -24 36 -28 29 -31 35 -16 41 13 5
14 9 5 20 -6 8 -17 14 -25 14 -18 0 -26 17 -19 41 6 16 9 18 21 8 13 -11 14
-9 9 13 -4 16 -2 29 6 33 7 5 10 4 5 -3 -3 -6 -2 -13 4 -17 6 -4 10 6 10 24 0
33 17 51 26 27 9 -23 23 -19 17 4 -4 16 -2 19 13 13 18 -6 18 -5 -1 16 -17 20
-20 38 -21 127 0 90 -3 107 -20 124 -28 28 -83 46 -127 42z m-42 -232 c11 -35
-17 -54 -43 -28 -7 7 -8 17 -1 30 13 24 36 23 44 -2z m96 -7 c1 -17 2 -17 6 0
5 19 23 23 23 5 0 -23 -18 -41 -34 -35 -9 4 -16 16 -16 27 0 24 20 27 21 3z
m-136 -303 c3 -6 -4 -10 -17 -10 -18 0 -20 2 -8 10 19 12 18 12 25 0z"/>
</g>
</svg>
